<svg width="99" height="82" viewBox="0 0 99 82" fill="none" xmlns="http://www.w3.org/2000/svg">
<path d="M97.9556 43.1629C97.2904 42.1297 96.3055 41.3863 95.1762 40.8761C94.0451 40.3658 92.7459 40.0907 91.3663 40.0889H66.469C66.2661 40.0889 66.0797 40.1417 65.897 40.2037C65.7161 40.1417 65.5297 40.0889 65.3269 40.0889H1.82733C0.818642 40.0889 0 40.9034 0 41.9111V54.6665C0.0073093 58.6882 3.27639 61.9481 7.3093 61.9554H59.8449C63.8778 61.9481 67.1469 58.6882 67.1542 54.6665V51.0221H91.3663C93.2064 51.0167 94.9021 50.5356 96.2507 49.6445C96.9232 49.1963 97.5152 48.6369 97.9556 47.9481C98.3978 47.2647 98.6774 46.432 98.6756 45.5555C98.6774 44.679 98.3978 43.8463 97.9556 43.1629ZM62.4251 57.2395C61.7526 57.9046 60.8481 58.311 59.8449 58.311H7.3093C6.3061 58.311 5.40157 57.9046 4.72912 57.2395C4.06214 56.5708 3.65465 55.6688 3.65465 54.6665V43.7333H63.4995V54.6665C63.4995 55.6688 63.0921 56.5708 62.4251 57.2395ZM94.8747 45.991C94.7048 46.2643 94.2973 46.6361 93.6742 46.9149C93.0565 47.1937 92.247 47.3795 91.3663 47.3777H67.1542V43.7333H91.3663C92.5412 43.7278 93.5865 44.0686 94.2242 44.4986C94.544 44.71 94.7596 44.9378 94.8747 45.12C94.9898 45.3059 95.0191 45.4316 95.0209 45.5555C95.0191 45.6794 94.9898 45.8051 94.8747 45.991Z" fill="#231F20"/>
<path d="M9.1369 47.3777C8.12821 47.3777 7.30957 48.1922 7.30957 49.1999V52.8443C7.30957 53.852 8.12821 54.6665 9.1369 54.6665C10.1456 54.6665 10.9642 53.852 10.9642 52.8443V49.1999C10.9642 48.1922 10.1456 47.3777 9.1369 47.3777Z" fill="#231F20"/>
<path d="M11.9216 15.8299C9.86039 18.6526 9.12946 21.5954 9.13677 24.1556C9.16418 29.2924 11.8266 32.8822 11.9216 33.0407C12.5137 33.8552 13.6576 34.0375 14.4744 33.4471C15.2894 32.8585 15.4703 31.7233 14.8837 30.9069L14.8801 30.9014C14.8143 30.8358 12.7658 27.8164 12.7914 24.1556C12.7987 22.2496 13.2866 20.1686 14.8801 17.9674C16.9413 15.1448 17.6722 12.2001 17.6649 9.6399C17.6375 4.50309 14.9751 0.911513 14.8801 0.752981C14.288 -0.0615467 13.1459 -0.243769 12.3291 0.346627C11.5141 0.935201 11.3332 2.07044 11.9198 2.88679L11.9234 2.89226C11.9892 2.95785 14.0377 5.97908 14.0121 9.6399C14.0029 11.5459 13.515 13.6287 11.9216 15.8299Z" fill="#231F20"/>
<path d="M50.2956 15.8299C48.2344 18.6526 47.5035 21.5954 47.5108 24.1556C47.5382 29.2924 50.2006 32.8822 50.2956 33.0407C50.8877 33.8552 52.0316 34.0375 52.8484 33.4471C53.6634 32.8585 53.8443 31.7233 53.2577 30.9069L53.2541 30.9014C53.1883 30.8358 51.1399 27.8164 51.1654 24.1556C51.1728 22.2496 51.6607 20.1686 53.2541 17.9674C55.3153 15.1448 56.0462 12.2001 56.0389 9.6399C56.0115 4.50309 53.3491 0.911513 53.2541 0.752981C52.662 -0.0615467 51.5199 -0.243769 50.7031 0.346627C49.8881 0.935201 49.7072 2.07044 50.2938 2.88679L50.2975 2.89226C50.3633 2.95785 52.4117 5.97908 52.3861 9.6399C52.377 11.5459 51.8891 13.6287 50.2956 15.8299Z" fill="#231F20"/>
<path d="M31.1081 15.8318C29.0469 18.6544 28.316 21.5972 28.3233 24.1556C28.3507 29.2924 31.0131 32.8822 31.1081 33.0407C31.7002 33.8552 32.8441 34.0375 33.6609 33.4471C34.4759 32.8585 34.6568 31.7233 34.0702 30.9069L34.0666 30.9014C34.0008 30.8358 31.9524 27.8164 31.9779 24.1556C31.9853 22.2514 32.4732 20.1705 34.0666 17.9692C36.1278 15.1448 36.8587 12.2001 36.8514 9.6399C36.824 4.50309 34.1616 0.911513 34.0666 0.752981C33.4745 -0.0615467 32.3306 -0.243769 31.5156 0.346627C30.7006 0.935201 30.5197 2.07044 31.1063 2.88679L31.11 2.89226C31.1757 2.95785 33.2224 5.97726 33.1986 9.6399C33.1895 11.5459 32.7016 13.6287 31.1081 15.8318Z" fill="#231F20"/>
<path d="M60.3012 78.3555H53.4213C53.4962 78.2188 53.5803 78.0895 53.6497 77.9473C54.2582 76.6845 54.5908 75.2231 54.5908 73.6651C54.589 72.406 54.187 71.2853 53.6643 70.3487C52.8695 68.9401 51.7932 67.8705 50.9124 67.1088C50.0316 66.3526 49.3372 65.9153 49.2824 65.8807C48.6867 65.5053 47.932 65.5053 47.3363 65.8807C47.2632 65.9262 46.0554 66.6824 44.7799 67.9725C44.1422 68.6213 43.4843 69.4066 42.9562 70.3487C42.4318 71.2871 42.0316 72.406 42.0298 73.6651C42.0316 75.3981 42.461 77.0016 43.2102 78.3537H38.8027C38.8776 78.217 38.9617 78.0876 39.0311 77.9455C39.6396 76.6827 39.9722 75.2213 39.9722 73.6633C39.9704 72.4042 39.5684 71.2835 39.0457 70.3469C38.2509 68.9383 37.1746 67.8687 36.2938 67.107C35.413 66.3526 34.7186 65.9153 34.6638 65.8807C34.0681 65.5053 33.3134 65.5053 32.7177 65.8807C32.6446 65.9262 31.4368 66.6824 30.1613 67.9725C29.5236 68.6213 28.8657 69.4066 28.3376 70.3487C27.8132 71.2871 27.413 72.406 27.4112 73.6651C27.413 75.3981 27.8424 77.0016 28.5916 78.3537H24.5624C24.5861 78.3063 24.6172 78.2608 24.6409 78.2116C25.2476 76.9506 25.582 75.4892 25.582 73.933C25.5802 72.6739 25.1782 71.5532 24.6556 70.6148C23.8607 69.2062 22.7844 68.1365 21.9036 67.3749C21.0228 66.6186 20.3285 66.1813 20.2736 66.1467C19.6779 65.7713 18.9232 65.7713 18.3275 66.1467C18.2544 66.1923 17.0466 66.9485 15.7711 68.2404C15.1334 68.8873 14.4755 69.6727 13.9474 70.6148C13.423 71.555 13.0228 72.6739 13.021 73.933C13.0228 75.5511 13.3883 77.0599 14.0461 78.3555H7.30877C6.30009 78.3555 5.48145 79.17 5.48145 80.1777C5.48145 81.1854 6.30009 81.9999 7.30877 81.9999H60.3012C61.3099 81.9999 62.1285 81.1854 62.1285 80.1777C62.1285 79.17 61.3099 78.3555 60.3012 78.3555ZM46.1467 72.1235C46.6054 71.2926 47.4058 70.4544 48.0928 69.8695C48.1696 69.8039 48.2354 69.7547 48.3066 69.6945C48.6246 69.9551 48.9736 70.2576 49.3226 70.6202C49.7813 71.0958 50.2107 71.6425 50.5012 72.1764C50.7936 72.7139 50.938 73.2169 50.938 73.667C50.9416 75.0409 50.5268 76.2545 49.9713 77.0271C49.6954 77.4152 49.3921 77.6904 49.1107 77.8562C48.8256 78.022 48.5771 78.0895 48.3103 78.0913C48.0453 78.0895 47.795 78.022 47.5099 77.8562C47.0896 77.6102 46.6145 77.1055 46.2637 76.3711C45.9092 75.6386 45.6826 74.6965 45.6826 73.667C45.6808 73.2023 45.8361 72.6811 46.1467 72.1235ZM31.5281 72.1235C31.9868 71.2926 32.7872 70.4544 33.4742 69.8695C33.551 69.8039 33.6168 69.7547 33.688 69.6945C34.006 69.9551 34.355 70.2576 34.704 70.6202C35.1627 71.0958 35.5921 71.6425 35.8826 72.1764C36.175 72.7139 36.3194 73.2169 36.3194 73.667C36.323 75.0409 35.9082 76.2545 35.3527 77.0271C35.0768 77.4152 34.7735 77.6904 34.4921 77.8562C34.207 78.022 33.9585 78.0895 33.6917 78.0913C33.4267 78.0895 33.1764 78.022 32.8913 77.8562C32.471 77.6102 31.9959 77.1055 31.6451 76.3711C31.2906 75.6386 31.064 74.6965 31.064 73.667C31.0622 73.2023 31.2175 72.6811 31.5281 72.1235ZM18.5011 78.1204C18.0809 77.8744 17.6057 77.3697 17.2531 76.6353C16.9004 75.9046 16.672 74.9644 16.6738 73.9348C16.672 73.4702 16.8273 72.9472 17.138 72.3896C17.5966 71.5587 18.397 70.7204 19.0841 70.1355C19.1608 70.0699 19.2266 70.0207 19.2978 69.9588C19.6158 70.2212 19.9648 70.5236 20.312 70.8863C20.7707 71.3619 21.2001 71.9085 21.4906 72.4424C21.783 72.98 21.9274 73.4829 21.9274 73.933C21.931 75.307 21.518 76.5205 20.9607 77.2913C20.6848 77.6795 20.3815 77.9546 20.1 78.1204C19.815 78.2863 19.5665 78.3537 19.2997 78.3555C19.0347 78.3537 18.7862 78.2863 18.5011 78.1204Z" fill="#231F20"/>
</svg>
