<svg width="63" height="80" viewBox="0 0 63 80" fill="none" xmlns="http://www.w3.org/2000/svg">
<path d="M57.2168 20.871C59.8574 14.8642 59.6617 7.22813 56.5216 1.60477C55.5937 -0.0902186 53.7764 -0.512792 52.4364 0.675422C51.1112 1.86145 50.7827 4.20469 51.7109 5.90438C53.484 9.1535 53.5726 13.3683 52.2152 16.824C50.0924 15.534 47.7422 14.7515 45.2812 14.7515C40.8233 14.7515 36.7996 16.916 33.6853 20.3733L43.3125 25.7697V39.9338H54.4556L58.5814 52.1774C61.302 48.2131 63 43.0952 63 37.2888C63 30.8563 60.7482 25.0028 57.2168 20.871ZM39.375 44.942V29.0721L32.8597 25.5209C26.6027 37.6331 23.1943 62.471 6.89062 62.471C3.09217 62.471 0 66.3994 0 71.2355C0 76.0716 3.09217 80 6.89062 80C29.076 80 46.2779 66.185 54.7928 53.6283L51.8643 44.942H39.375Z" fill="black"/>
</svg>
