<svg width="75" height="85" viewBox="0 0 75 85" fill="none" xmlns="http://www.w3.org/2000/svg">
<path d="M33.9347 19.114C33.9347 18.2734 33.9347 17.1133 33.9347 15.8336C33.9252 12.3864 31.0775 9.63333 27.617 9.63018H21.2629C21.2692 9.56565 21.2992 9.51056 21.2992 9.44444V1.57407C21.2992 0.705185 20.5917 0 19.7198 0C18.848 0 18.1404 0.705185 18.1404 1.57407V9.44444C18.1404 9.51056 18.1704 9.56565 18.1767 9.62861H11.8226C8.3621 9.63176 5.51438 12.3848 5.5049 15.832C5.5049 17.1118 5.5049 18.2734 5.5049 19.1124C2.78828 19.8207 0.77134 22.259 0.766602 25.1852V78.7037C0.772919 82.1777 3.59853 84.9937 7.08434 85H32.3553C35.8411 84.9937 38.6667 82.1777 38.673 78.7037V25.1852C38.6683 22.259 36.6513 19.8207 33.9347 19.114ZM9.583 13.6866C10.1595 13.1246 10.9461 12.7768 11.8226 12.7768H27.617C28.4936 12.7768 29.2817 13.1246 29.8566 13.6866C30.4331 14.2517 30.7758 15.0025 30.7758 15.8336C30.7758 17.0079 30.7758 18.0704 30.7758 18.8889H8.66377C8.66377 18.0704 8.66377 17.0063 8.66377 15.8336C8.66377 15.0025 9.00651 14.2517 9.583 13.6866ZM35.5141 78.7037C35.5141 79.5694 35.1619 80.3486 34.5854 80.9263C34.0042 81.5008 33.2224 81.8518 32.3553 81.8518H7.08434C6.21723 81.8518 5.43541 81.5008 4.85418 80.9263C4.27768 80.3486 3.92547 79.5694 3.92547 78.7037V25.1852C3.92547 24.321 4.27768 23.5419 4.85418 22.9626C5.43541 22.3881 6.21723 22.037 7.08434 22.037H32.3553C33.2224 22.037 34.0042 22.3881 34.5854 22.9626C35.1619 23.5419 35.5141 24.321 35.5141 25.1852V78.7037Z" fill="#231F20"/>
<path d="M71.1233 30.2787C71.1233 29.5814 71.1233 28.6086 71.1233 27.532C71.1233 25.9327 70.3035 24.5318 69.1474 23.6047C67.9849 22.6681 66.4592 22.1297 64.8055 22.1282H60.7859V15.7406C60.7859 14.8717 60.0783 14.1665 59.2064 14.1665C58.3346 14.1665 57.627 14.8717 57.627 15.7406V22.1297H53.6074C51.9553 22.1313 50.4295 22.6697 49.2655 23.6062C48.1078 24.5334 47.288 25.9343 47.2896 27.5335C47.2896 28.6118 47.2896 29.583 47.2896 30.2803C45.0168 31.2342 43.4168 33.4725 43.4121 36.0839V78.7035C43.4184 82.1775 46.244 84.9935 49.7298 84.9998H68.683C72.1689 84.9935 74.9945 82.1775 75.0008 78.7035V36.0823C74.996 33.4725 73.3977 31.2342 71.1233 30.2787ZM51.2556 26.0508C51.81 25.599 52.6534 25.2747 53.6074 25.2779H64.8071C65.7611 25.2763 66.6045 25.6006 67.1589 26.0508C67.7196 26.512 67.966 27.0267 67.966 27.532C67.966 28.3757 67.966 29.1517 67.966 29.786H50.4485C50.4485 29.1517 50.4485 28.3757 50.4485 27.532C50.4485 27.0251 50.6949 26.512 51.2556 26.0508ZM71.8419 78.7035C71.8419 79.5693 71.4897 80.3484 70.9132 80.9261C70.332 81.5007 69.5502 81.8517 68.683 81.8517H49.7298C48.8627 81.8517 48.0809 81.5007 47.4997 80.9261C46.9232 80.3484 46.571 79.5693 46.571 78.7035V36.0823C46.571 35.2182 46.9232 34.439 47.4997 33.8597C48.0793 33.2836 48.8612 32.9342 49.7298 32.9342H68.683C69.5502 32.9342 70.332 33.2852 70.9132 33.8597C71.4897 34.439 71.8419 35.2182 71.8419 36.0823V78.7035Z" fill="#231F20"/>
<path d="M8.66342 25.1853C7.79157 25.1853 7.08398 25.8905 7.08398 26.7594V77.1297C7.08398 78.0002 7.79157 78.7038 8.66342 78.7038C9.53527 78.7038 10.2429 78.0002 10.2429 77.1297V26.7594C10.2429 25.8905 9.53527 25.1853 8.66342 25.1853Z" fill="#231F20"/>
<path d="M51.3079 36.2036C50.4361 36.2036 49.7285 36.9088 49.7285 37.7777V77.1295C49.7285 78 50.4361 78.7036 51.3079 78.7036C52.1798 78.7036 52.8874 78 52.8874 77.1295V37.7777C52.8874 36.9088 52.1798 36.2036 51.3079 36.2036Z" fill="#231F20"/>
</svg>
